<?xml version="1.0" encoding="UTF-8"?>
<svg xmlns="http://www.w3.org/2000/svg" xmlns:xlink="http://www.w3.org/1999/xlink" width="472px" height="472px" viewBox="0 0 472 472" version="1.1">
<g id="surface1">
<path style=" stroke:none;fill-rule:nonzero;fill:rgb(0%,0%,0%);fill-opacity:1;" d="M 353.523438 119.867188 C 351.371094 118.339844 348.660156 118.136719 346.414062 116.675781 C 343.105469 114.519531 340.296875 111.800781 337.273438 109.328125 C 335.742188 108.078125 334.128906 107.21875 332.160156 106.882812 C 331.207031 106.722656 329.675781 106.761719 329.691406 105.335938 C 329.703125 104.105469 331.097656 104.101562 332.023438 103.863281 C 333.875 103.390625 335.753906 103.011719 337.625 102.59375 C 335.964844 97.390625 333.332031 96.261719 327.355469 95.5 C 322.617188 94.898438 318.167969 96.59375 313.875 98.023438 C 305.144531 100.929688 297.253906 98.785156 289.398438 95.25 C 288.65625 94.917969 287.648438 94.507812 287.976562 93.457031 C 288.34375 92.285156 289.398438 92.628906 290.324219 92.75 C 294.902344 93.347656 299.347656 92.917969 303.53125 90.816406 C 306.757812 89.195312 310.117188 88.414062 313.757812 88.707031 C 318.019531 89.046875 322.324219 88.335938 327.089844 89.5 C 325.472656 86.558594 323.203125 85.144531 320.898438 84.191406 C 315.519531 81.960938 310.230469 79.21875 304.4375 78.394531 C 300.265625 77.800781 296 78.632812 292.464844 81.316406 C 290.695312 82.652344 288.96875 84.125 287.527344 85.792969 C 284.464844 89.34375 280.398438 90.4375 276.046875 90.855469 C 273.839844 91.070312 271.601562 90.820312 269.394531 91.269531 C 268.578125 91.433594 267.617188 91.402344 267.121094 90.542969 C 266.644531 89.722656 267.285156 89.050781 267.757812 88.488281 C 272.414062 82.953125 277.589844 78.257812 284.914062 76.359375 C 289.335938 75.210938 293.75 74.820312 298.3125 74.90625 C 295.535156 72.941406 292.414062 72.152344 289.125 71.835938 C 283.882812 71.335938 278.703125 70.046875 273.355469 71.050781 C 270.804688 71.527344 268.738281 72.261719 267.476562 74.804688 C 261.960938 85.917969 251.976562 89.890625 240.519531 91.40625 C 239.304688 91.566406 238.078125 91.742188 236.867188 91.710938 C 236.066406 91.6875 235.046875 91.507812 234.921875 90.453125 C 234.800781 89.46875 235.75 89.246094 236.425781 88.960938 C 238.472656 88.097656 240.582031 87.402344 242.578125 86.382812 C 248.292969 83.464844 252.050781 78.453125 256.84375 73.484375 C 254.316406 73.640625 252.390625 73.644531 250.496094 73.902344 C 244.140625 74.769531 238.050781 76.539062 232.359375 79.554688 C 230.910156 80.320312 229.992188 81.332031 230.027344 83.160156 C 230.160156 90.125 226.6875 95.257812 221.472656 99.421875 C 219.375 101.097656 217.226562 102.722656 215.003906 104.226562 C 211.90625 106.324219 209.5625 109.148438 207.164062 111.9375 C 206.914062 112.230469 206.699219 112.554688 206.429688 112.824219 C 205.257812 113.992188 204.273438 115.628906 202.261719 115.128906 C 201.089844 114.839844 199.84375 111.324219 200.167969 109.597656 C 200.652344 107.027344 201.871094 104.816406 203.695312 102.984375 C 206.675781 99.992188 209.796875 97.132812 213.441406 94.960938 C 215.683594 93.621094 217.160156 91.824219 217.863281 88.988281 C 216.128906 89.953125 214.914062 91.199219 213.964844 92.566406 C 210.933594 96.9375 206.183594 98.695312 201.664062 100.664062 C 196.789062 102.785156 191.511719 103.601562 186.265625 104.398438 C 181.855469 105.070312 177.878906 106.78125 174.359375 109.542969 C 173.757812 110.011719 173.046875 110.53125 172.292969 109.863281 C 171.570312 109.230469 171.910156 108.441406 172.230469 107.742188 C 176.582031 98.179688 182.878906 93.621094 193.453125 93.167969 C 197.058594 93.011719 200.742188 93.824219 204.421875 93.449219 C 205.277344 93.363281 206.132812 93.292969 206.867188 92.882812 C 210.28125 90.964844 213.691406 89.035156 216.78125 86.605469 C 217.320312 86.183594 217.859375 85.726562 218.035156 85.007812 C 217.824219 84.273438 217.179688 84.503906 216.703125 84.394531 C 214.011719 83.789062 211.261719 83.375 208.636719 82.558594 C 201.902344 80.457031 195.308594 79.835938 188.859375 83.5 C 188.082031 83.945312 187.132812 84.117188 186.238281 84.320312 C 185.691406 84.449219 185.136719 84.273438 184.894531 83.691406 C 184.648438 83.109375 184.925781 82.65625 185.402344 82.308594 C 185.589844 82.171875 185.773438 82.023438 185.980469 81.929688 C 192.394531 78.984375 198.394531 75.25 204.761719 72.191406 C 210.273438 69.546875 215.570312 70.070312 221.027344 71.890625 C 221.171875 71.9375 221.328125 71.976562 221.457031 72.050781 C 228.417969 76.078125 235.621094 74.65625 242.785156 72.902344 C 246.855469 71.90625 250.742188 70.121094 255.085938 70.242188 C 253.367188 69.191406 251.523438 69.054688 249.660156 69.402344 C 244.835938 70.296875 240.519531 69.148438 236.605469 66.308594 C 234.242188 64.59375 231.925781 62.820312 229.578125 61.085938 C 226.9375 59.132812 223.960938 57.960938 220.753906 57.316406 C 220.148438 57.195312 219.492188 57.050781 219.476562 56.25 C 219.464844 55.722656 219.863281 55.410156 220.328125 55.292969 C 224.628906 54.1875 228.761719 52.394531 233.257812 52.074219 C 238.265625 51.71875 242.40625 53.753906 246.027344 56.941406 C 247.980469 58.664062 249.863281 60.523438 251.464844 62.5625 C 253.515625 65.167969 256.113281 67.023438 258.851562 68.722656 C 260.582031 69.796875 262.488281 70.230469 264.585938 69.636719 C 268.144531 68.632812 271.863281 68.671875 275.496094 68.125 C 276.980469 67.902344 277.355469 67.121094 276.347656 66.179688 C 272.660156 62.722656 271.175781 57.871094 268.425781 53.820312 C 265.855469 50.035156 262.449219 47.769531 258.507812 45.933594 C 257.390625 45.414062 255.585938 45.285156 255.773438 43.625 C 255.960938 41.984375 257.699219 42.492188 258.820312 42.300781 C 267 40.894531 274.171875 42.894531 280.214844 48.6875 C 282.058594 50.457031 283.089844 52.667969 283.730469 55.058594 C 284.347656 57.355469 285.191406 59.6875 285.246094 62.019531 C 285.363281 67.152344 288.457031 69.636719 292.804688 70.488281 C 298.675781 71.636719 304.066406 73.960938 309.53125 76.175781 C 309.875 76.316406 310.246094 76.398438 311.074219 76.648438 C 307.394531 70.375 307.257812 63.277344 304.09375 57.230469 C 302.050781 53.328125 299.820312 49.5 294.839844 48.71875 C 294.566406 48.675781 294.308594 48.425781 294.082031 48.234375 C 293.980469 48.148438 293.96875 47.960938 293.910156 47.804688 C 294.105469 46.859375 294.949219 46.765625 295.652344 46.550781 C 301.101562 44.886719 306.269531 46.179688 310.414062 49.519531 C 313.921875 52.351562 315.230469 56.871094 315.582031 61.480469 C 315.929688 65.976562 315.910156 70.53125 317.753906 74.804688 C 318.433594 76.382812 319.183594 77.8125 320.535156 78.945312 C 323.539062 81.453125 326.46875 84.050781 329.449219 86.589844 C 329.890625 86.964844 330.285156 87.515625 331.257812 87.351562 C 331.117188 80.53125 333.363281 74.003906 334.03125 67.246094 C 334.320312 64.304688 333.417969 61.472656 332.628906 58.671875 C 332.066406 56.675781 332.382812 56.191406 334.484375 56.152344 C 338.285156 56.089844 341.457031 58.3125 342.804688 62.582031 C 344.417969 67.707031 344.867188 72.828125 342.589844 78.074219 C 340.375 83.171875 337.910156 88.285156 338.34375 94.164062 C 338.472656 95.90625 338.742188 97.464844 339.691406 98.9375 C 340.394531 100.03125 341.066406 101.171875 341.527344 102.375 C 341.980469 103.554688 342.707031 104.265625 343.824219 104.777344 C 346.429688 105.96875 348.367188 107.847656 349.472656 110.546875 C 351.667969 115.90625 358.320312 118.058594 363.390625 117.59375 C 361.445312 114.441406 360.742188 110.871094 359.289062 107.605469 C 358.027344 104.773438 355.917969 102.730469 352.988281 101.507812 C 351.878906 101.042969 349.917969 100.507812 350.527344 99.054688 C 351.15625 97.554688 352.699219 98.914062 353.691406 99.34375 C 357.777344 101.105469 362.089844 102.269531 366.078125 104.308594 C 368.957031 105.777344 370.804688 107.878906 371.757812 110.882812 C 372.035156 111.761719 372.441406 112.628906 372.539062 113.527344 C 373.199219 119.546875 377.324219 123.023438 381.8125 126.195312 C 383.566406 127.4375 385.390625 128.570312 387.101562 130.738281 C 386.863281 129.3125 386.460938 128.558594 385.871094 128.03125 C 382.28125 124.847656 381.640625 120.71875 381.992188 116.261719 C 382.296875 112.4375 382.695312 108.613281 380.839844 105.003906 C 380.722656 104.78125 380.851562 104.433594 380.859375 104.257812 C 381.265625 103.800781 381.644531 103.8125 382.011719 103.964844 C 389.285156 107.027344 392.386719 112.621094 391.390625 120.484375 C 390.964844 123.828125 389.4375 126.925781 389.574219 130.410156 C 389.671875 132.886719 390.367188 134.824219 392.253906 136.476562 C 394.027344 138.03125 395.597656 139.816406 397.625 141.878906 C 399.046875 135.882812 402.5 131.113281 403.558594 125.4375 C 403.914062 123.535156 403.429688 121.621094 402.976562 119.746094 C 402.78125 118.9375 402.578125 117.953125 403.488281 117.453125 C 404.449219 116.929688 405.042969 117.828125 405.632812 118.363281 C 411.882812 124.054688 412.417969 134.394531 407.191406 139.984375 C 406.09375 141.15625 405.320312 142.664062 404.125 143.710938 C 401.164062 146.308594 401.429688 149.289062 402.710938 152.496094 C 403.761719 155.128906 404.816406 157.75 404.957031 160.644531 C 405.007812 161.71875 405.539062 162.65625 406.234375 163.871094 C 408.976562 158.695312 413.234375 154.863281 415.46875 149.664062 C 416.59375 147.046875 417.277344 144.4375 416.109375 141.652344 C 415.960938 141.300781 415.960938 140.898438 416.265625 140.578125 C 418.429688 140.753906 420.546875 142.84375 421.445312 145.339844 C 423.320312 150.542969 421.515625 154.8125 418.191406 158.683594 C 415.847656 161.414062 412.902344 163.585938 410.828125 166.59375 C 409.488281 168.535156 408.625 170.554688 408.46875 172.957031 C 408.292969 175.605469 407.820312 178.234375 407.398438 181.511719 C 411.027344 178.746094 414.367188 176.636719 417.816406 174.710938 C 420.964844 172.953125 423.421875 170.488281 425.5 167.566406 C 426.613281 165.996094 427.5 166.128906 428.332031 167.835938 C 429.855469 170.957031 428.574219 173.582031 426.914062 176.199219 C 423.804688 181.09375 418.816406 183.007812 413.71875 184.863281 C 409.121094 186.539062 405.792969 189.355469 403.359375 193.953125 C 401.292969 197.855469 400.59375 201.699219 400.277344 205.855469 C 400.132812 207.765625 399.886719 209.667969 399.652344 211.570312 C 399.171875 215.476562 401.371094 218.617188 402.734375 221.957031 C 403.773438 224.503906 405.46875 226.75 407.175781 228.933594 C 408.566406 230.710938 409.46875 232.726562 410.171875 234.898438 C 410.824219 233.1875 410.429688 231.550781 409.707031 230.019531 C 407.585938 225.507812 408.089844 221.148438 410.039062 216.707031 C 411.730469 212.859375 413.855469 209.1875 414.816406 205.015625 C 415.207031 203.324219 415.214844 201.679688 415.148438 199.996094 C 415.128906 199.441406 415.121094 198.878906 415.710938 198.605469 C 416.3125 198.332031 416.78125 198.648438 417.089844 199.121094 C 419.273438 202.453125 421.824219 205.574219 423.242188 209.355469 C 425.390625 215.070312 423.222656 219.992188 420.339844 224.804688 C 418.023438 228.671875 414.945312 232.0625 413.339844 236.398438 C 412.328125 239.125 411.929688 241.542969 413.46875 244.285156 C 415.214844 247.394531 416.492188 250.765625 417.953125 253.980469 C 418.328125 253.898438 418.550781 253.914062 418.605469 253.828125 C 422.101562 248.21875 427.679688 244.511719 431.746094 239.425781 C 433.824219 236.828125 434.757812 233.769531 435.46875 230.609375 C 435.570312 230.160156 435.488281 229.667969 435.628906 229.242188 C 435.988281 228.175781 436.09375 226.707031 437.414062 226.515625 C 439.003906 226.285156 438.964844 227.925781 439.382812 228.902344 C 441.109375 232.945312 442.8125 237.117188 441.609375 241.5625 C 439.902344 247.894531 437.359375 253.765625 430.792969 256.757812 C 428.421875 257.835938 426.277344 259.40625 423.902344 260.464844 C 420.664062 261.914062 419.195312 264.566406 419.199219 267.769531 C 419.207031 274.074219 418.394531 280.273438 417.304688 286.882812 C 419.632812 285.460938 421.261719 283.78125 423.234375 282.554688 C 428.886719 279.039062 434.847656 275.890625 438.941406 270.339844 C 440.433594 268.320312 441.730469 266.300781 441.5 263.640625 C 441.441406 262.980469 441.375 262.128906 442.285156 261.957031 C 443.09375 261.804688 443.484375 262.511719 443.875 263.078125 C 447.433594 268.242188 446.503906 275.765625 442.328125 280.421875 C 438.316406 284.890625 432.929688 286.714844 427.742188 288.894531 C 421.625 291.46875 417 295.410156 414.589844 301.613281 C 413.628906 304.089844 411.578125 306.054688 411.164062 308.78125 C 411.464844 308.886719 411.625 309 411.734375 308.96875 C 417.546875 307.171875 423.527344 306.226562 429.53125 305.367188 C 433.488281 304.796875 436.886719 302.820312 440.167969 300.648438 C 440.980469 300.113281 441.71875 299.175781 442.820312 299.851562 C 443.773438 300.4375 443.828125 301.488281 443.878906 302.511719 C 444.082031 306.738281 441.558594 309.375 438.445312 311.535156 C 433.507812 314.957031 428.066406 316.5625 421.957031 316.253906 C 416.765625 315.988281 411.535156 315.9375 406.492188 317.804688 C 404.320312 318.609375 402.550781 319.792969 401.054688 321.503906 C 399.53125 323.25 397.644531 324.582031 395.820312 325.980469 C 395.261719 326.410156 394.566406 326.757812 393.957031 326.105469 C 393.292969 325.398438 393.90625 324.8125 394.335938 324.308594 C 396.023438 322.324219 397.765625 320.382812 399.449219 318.394531 C 402.765625 314.472656 403.296875 309.136719 400.714844 304.5625 C 399.207031 301.890625 397.6875 299.191406 395.867188 296.734375 C 391.742188 291.15625 391.59375 284.929688 392.457031 278.476562 C 392.648438 277.035156 392.921875 275.597656 393.265625 274.183594 C 393.453125 273.402344 393.636719 272.332031 394.796875 272.550781 C 395.78125 272.730469 396.019531 273.660156 396.007812 274.542969 C 395.964844 277.253906 396.972656 279.625 398.230469 281.949219 C 398.933594 283.242188 399.75 284.394531 400.824219 285.425781 C 403.367188 287.867188 405.214844 290.753906 405.851562 294.292969 C 406.425781 297.453125 407.621094 300.492188 407.6875 303.753906 C 407.699219 304.289062 407.847656 304.816406 408.472656 305.292969 C 409.617188 304.894531 409.957031 303.75 410.464844 302.777344 C 412.953125 298.003906 412.609375 292.632812 413.6875 287.558594 C 414.546875 283.519531 413.835938 279.855469 411.675781 276.363281 C 410.546875 274.542969 409.199219 273.074219 407.25 272.144531 C 405.449219 271.289062 403.742188 270.195312 401.886719 269.488281 C 398.730469 268.285156 396.582031 266.128906 395.339844 263.085938 C 394.265625 260.464844 393.285156 257.796875 392.441406 255.09375 C 391.792969 253.015625 392.476562 252.308594 394.582031 252.90625 C 401.542969 254.886719 407.570312 258.132812 411.535156 264.621094 C 413.65625 268.097656 415.0625 271.707031 415.664062 276.144531 C 416.980469 273.945312 417.371094 271.875 417.191406 269.9375 C 416.636719 263.933594 416.449219 257.84375 413.957031 252.160156 C 412.984375 249.941406 411.675781 248.554688 409.105469 248.238281 C 403.636719 247.566406 398.460938 246.117188 394.1875 242.265625 C 389.441406 237.988281 386.199219 232.820312 384.402344 226.730469 C 384.15625 225.898438 383.898438 224.734375 384.917969 224.234375 C 386.007812 223.703125 386.570312 224.773438 387.078125 225.480469 C 391.925781 232.257812 399.207031 235.03125 406.863281 237.632812 C 407.144531 235.917969 406.378906 234.550781 405.796875 233.234375 C 403.410156 227.863281 400.332031 222.957031 396.0625 218.820312 C 394.414062 217.222656 392.664062 216.601562 390.652344 217.480469 C 382.75 220.921875 376.101562 217.765625 369.742188 213.523438 C 365.363281 210.605469 360.84375 208.097656 355.78125 206.59375 C 354.34375 206.167969 352.527344 205.828125 352.273438 204.042969 C 351.996094 202.128906 353.894531 201.574219 355.152344 200.871094 C 358.453125 199.019531 361.878906 199.558594 365.113281 201.023438 C 368.601562 202.605469 372.082031 204.257812 375.128906 206.644531 C 377.035156 208.140625 379.203125 208.582031 381.992188 208.335938 C 380.40625 207.109375 378.804688 206.820312 377.339844 206.359375 C 372.945312 204.976562 370.003906 201.707031 367.042969 198.519531 C 363.769531 194.996094 361.746094 190.625 359.625 186.382812 C 357.757812 182.640625 355.445312 179.441406 351.816406 177.257812 C 351.027344 176.785156 349.808594 176.253906 350.429688 174.988281 C 350.957031 173.914062 352.132812 174.078125 353.113281 174.21875 C 355.011719 174.492188 356.902344 174.8125 358.78125 175.179688 C 365.878906 176.5625 372.382812 183.75 372.722656 190.992188 C 373 197.007812 375.925781 201.183594 380.804688 204.289062 C 382.632812 205.453125 384.152344 207.25 386.675781 207.265625 C 387.3125 205.558594 386.628906 203.976562 386.53125 202.441406 C 386.304688 198.765625 387.417969 195.117188 386.660156 191.453125 C 385.941406 187.988281 385.175781 184.601562 382.167969 182.171875 C 381.082031 181.292969 380.445312 179.847656 379.644531 178.632812 C 379.34375 178.171875 379.183594 177.601562 379.621094 177.136719 C 380.152344 176.5625 380.742188 176.835938 381.285156 177.175781 C 381.613281 177.375 381.980469 177.554688 382.226562 177.832031 C 386.875 183.058594 392.835938 186.925781 397.265625 192.375 C 398.179688 193.492188 399.054688 194.644531 399.949219 195.785156 C 403.644531 189.855469 404.109375 185.0625 398.113281 180.324219 C 396.304688 178.898438 394.511719 177.4375 392.617188 176.136719 C 387.625 172.71875 387.113281 167.179688 385.8125 162.011719 C 385.675781 161.46875 385.867188 160.886719 386.476562 160.699219 C 387.097656 160.507812 387.496094 160.921875 387.75 161.433594 C 389.515625 164.992188 392.507812 167.058594 396.015625 168.742188 C 399.652344 170.488281 401.097656 174.355469 403.394531 177.382812 C 403.84375 177.972656 403.917969 178.835938 404.910156 179.300781 C 405.625 177.449219 405.617188 175.488281 405.308594 173.734375 C 404.699219 170.269531 403.828125 166.820312 402.71875 163.480469 C 401.453125 159.679688 398.539062 157.570312 394.601562 156.945312 C 393.242188 156.730469 391.835938 156.457031 390.488281 156.59375 C 387.308594 156.921875 385.3125 155.058594 383.363281 153.0625 C 382.351562 152.023438 381.445312 150.875 380.519531 149.753906 C 379.300781 148.28125 379.558594 147.21875 381.394531 147.070312 C 386.53125 146.65625 391.527344 147.109375 395.828125 150.4375 C 398.015625 152.128906 400.175781 153.839844 401.546875 156.847656 C 401.996094 155.40625 401.734375 154.503906 401.390625 153.617188 C 399.777344 149.4375 397.613281 145.570312 394.765625 142.105469 C 393.160156 140.148438 391.253906 139.421875 388.660156 140.230469 C 379.945312 142.941406 372.40625 138.246094 367.125 132.222656 C 366.636719 131.667969 366.179688 130.988281 366.625 129.667969 C 369.6875 130.40625 372.273438 132.503906 375.402344 133.007812 C 378.539062 133.515625 381.640625 133.070312 384.65625 133.160156 C 385.175781 132.21875 384.574219 131.824219 384.183594 131.40625 C 380.839844 127.816406 376.964844 125 372.367188 123.195312 C 371.148438 122.71875 370.132812 122.765625 369.183594 123.644531 C 364.726562 127.777344 359.371094 128.144531 353.847656 126.941406 C 349.824219 126.0625 345.808594 125.824219 341.738281 125.890625 C 340.582031 125.910156 339.210938 126.03125 338.691406 124.804688 C 338.195312 123.632812 339.148438 122.617188 339.847656 121.730469 C 341.121094 120.128906 342.890625 119.398438 344.894531 119.363281 C 347.652344 119.3125 350.421875 119.132812 353.5 119.898438 C 355.863281 120.4375 357.882812 121.449219 360.234375 119.703125 C 357.738281 119.617188 355.628906 119.285156 353.523438 119.867188 Z M 353.523438 119.867188 "/>
<path style=" stroke:none;fill-rule:nonzero;fill:rgb(0%,0%,0%);fill-opacity:1;" d="M 101.371094 290.097656 C 97.800781 291.144531 94.910156 289.832031 92.421875 287.824219 C 88.960938 285.035156 85.683594 282.003906 83.1875 278.25 C 81.878906 276.28125 79.960938 275.316406 77.535156 275.007812 C 77.984375 276.113281 78.835938 276.632812 79.652344 277.152344 C 86.640625 281.617188 89.570312 288.582031 91.320312 296.226562 C 92.089844 299.585938 92.585938 303.007812 93.3125 306.375 C 93.789062 308.585938 94.953125 310.5 96.363281 312.253906 C 96.699219 312.671875 97.105469 313.050781 97.367188 313.511719 C 97.800781 314.273438 98.765625 315.089844 98.007812 315.972656 C 97.246094 316.859375 96.15625 316.355469 95.234375 315.96875 C 92.132812 314.667969 89.125 313.183594 86.316406 311.339844 C 83.492188 315.917969 83.773438 319.082031 87.425781 322.597656 C 89.523438 324.617188 91.894531 326.347656 94.023438 328.332031 C 97.0625 331.167969 97.792969 335.085938 98.675781 338.898438 C 98.730469 339.140625 98.507812 339.445312 98.167969 340.4375 C 93.984375 333.878906 86.277344 331.46875 83.289062 323.980469 C 82.332031 325.335938 82.574219 326.300781 82.765625 327.113281 C 83.539062 330.394531 84.136719 333.796875 85.78125 336.746094 C 87.175781 339.246094 89.40625 341.191406 92.429688 341.546875 C 97.113281 342.097656 100.5625 344.464844 103.179688 348.246094 C 103.640625 348.917969 104.476562 349.546875 103.953125 350.464844 C 103.496094 351.257812 102.582031 351.007812 101.839844 350.953125 C 95.546875 350.472656 90.710938 347.386719 86.847656 342.402344 C 87.273438 345.621094 91.738281 352.847656 94.183594 354.4375 C 95.203125 355.105469 96.261719 355.371094 97.460938 355.144531 C 104.589844 353.785156 111.359375 359.152344 114.761719 363.589844 C 115.113281 364.046875 115.472656 364.632812 114.691406 365.757812 C 110.582031 363.199219 106.128906 361.164062 100.542969 361.34375 C 103.890625 365.164062 107.246094 368.339844 111.808594 370.007812 C 112.402344 370.226562 113.0625 370.082031 113.570312 369.703125 C 117.125 367.0625 120.980469 367.550781 124.796875 368.78125 C 128.386719 369.945312 131.976562 370.953125 135.75 371.324219 C 137.914062 371.539062 138.289062 372.757812 136.90625 374.457031 C 135.304688 376.425781 133.171875 376.300781 130.988281 375.972656 C 130.273438 375.867188 129.5625 375.695312 128.800781 375.679688 C 132.796875 378.082031 136.171875 381.164062 139.441406 384.394531 C 140.65625 385.59375 142.164062 386.359375 143.808594 386.875 C 144.488281 387.089844 145.550781 387.125 145.472656 388.140625 C 145.390625 389.199219 144.324219 389.265625 143.527344 389.414062 C 138.34375 390.382812 132.25 387.625 129.726562 382.738281 C 127.445312 378.324219 123.65625 376.511719 118.625 375.25 C 120.085938 378.527344 121.363281 381.414062 122.65625 384.289062 C 124.039062 387.359375 127.734375 388.023438 129.636719 390.539062 C 128.734375 391.800781 127.929688 391.191406 127.234375 390.839844 C 124.285156 389.363281 121.414062 387.726562 118.417969 386.351562 C 114.5 384.558594 111.972656 381.640625 111.042969 377.503906 C 110.09375 373.269531 107.484375 370.324219 104.238281 367.757812 C 103.09375 366.855469 101.972656 365.929688 100.664062 365.074219 C 103.445312 367.71875 103.621094 371.078125 103.390625 374.511719 C 103.21875 377.101562 103.738281 379.539062 104.695312 381.914062 C 104.917969 382.460938 105.332031 383.007812 104.902344 383.640625 C 104.769531 383.71875 104.617188 383.886719 104.519531 383.859375 C 98.820312 382.152344 94.75 375.410156 95.878906 369.5625 C 95.964844 369.113281 96.09375 368.667969 96.164062 368.21875 C 97.59375 359.128906 96.898438 360.734375 90.125 353.632812 C 89.761719 355.703125 88.835938 357.449219 88.011719 359.25 C 86.582031 362.375 85.683594 365.589844 86.90625 369.042969 C 87.132812 369.679688 87.375 370.445312 86.621094 370.914062 C 85.847656 371.394531 85.335938 370.742188 84.824219 370.308594 C 80.402344 366.519531 77.082031 357.75 84.253906 351.308594 C 86.546875 349.25 86.945312 347.199219 85.617188 344.605469 C 84.226562 341.886719 83.589844 338.886719 82.566406 335.457031 C 80.425781 338.316406 78.523438 340.6875 76.8125 343.195312 C 75.003906 345.839844 74.542969 348.804688 75.949219 352.21875 C 73.050781 351.675781 71.953125 349.957031 71.125 348.21875 C 69.347656 344.484375 70.535156 339.847656 73.714844 337.136719 C 74.589844 336.390625 75.40625 335.570312 76.316406 334.871094 C 80.28125 331.8125 80.730469 327.832031 80.199219 322.214844 C 76.007812 325.054688 70.726562 325.550781 67.546875 329.855469 C 66.152344 331.742188 65.273438 331.558594 64.429688 329.394531 C 63.480469 326.972656 64.214844 324.894531 65.839844 323.023438 C 68.222656 320.28125 71.28125 318.886719 74.839844 318.394531 C 77.15625 318.074219 79.25 317.167969 81.097656 315.691406 C 83.089844 314.105469 83.140625 311.472656 84.511719 309.546875 C 84.828125 309.105469 84.214844 308.578125 83.96875 308.109375 C 81.371094 303.144531 80.285156 298.132812 81.625 292.390625 C 82.378906 289.148438 82.070312 285.371094 79.535156 282.382812 C 78.199219 280.804688 77.117188 279.015625 75.90625 277.335938 C 75.089844 276.207031 74.007812 275.410156 72.640625 274.65625 C 71.894531 279.042969 70.320312 282.949219 68.988281 286.929688 C 67.5 291.367188 67.167969 295.757812 69.710938 300.019531 C 70.40625 301.191406 70.769531 302.566406 71.265625 303.855469 C 71.542969 304.578125 71.460938 305.261719 70.695312 305.621094 C 69.941406 305.980469 69.371094 305.578125 68.917969 304.984375 C 68.777344 304.804688 68.640625 304.609375 68.542969 304.40625 C 65.453125 298.050781 61.261719 292.320312 58.230469 285.917969 C 56.035156 281.269531 57.316406 277.089844 59.03125 272.84375 C 60.003906 270.425781 61.179688 268.09375 62.191406 265.695312 C 62.484375 265.007812 62.769531 264.167969 62.640625 263.476562 C 61.746094 258.691406 61.890625 253.726562 60.007812 249.109375 C 58.996094 246.625 58.347656 244.023438 58.8125 241.109375 C 57.667969 242.578125 57.0625 244.570312 57.378906 246.214844 C 58.351562 251.265625 56.417969 255.339844 53.269531 259.074219 C 50.460938 262.402344 47.183594 265.351562 45.117188 269.289062 C 44.390625 270.671875 44.121094 272.1875 43.519531 273.59375 C 43.304688 274.09375 43.125 274.644531 42.445312 274.609375 C 41.929688 274.585938 41.550781 274.214844 41.441406 273.777344 C 40.308594 269.128906 37.949219 264.773438 38.582031 259.710938 C 39.296875 253.976562 43.269531 250.554688 47.132812 247.0625 C 50.246094 244.25 53.914062 242.082031 56.382812 238.527344 C 57.917969 236.320312 58.824219 234.183594 57.96875 231.464844 C 57.230469 229.113281 57.011719 226.65625 57.039062 224.183594 C 57.050781 223.132812 57.109375 222.03125 56.027344 220.972656 C 50.949219 225.671875 44.097656 227.425781 38.632812 231.53125 C 36.199219 233.359375 34.515625 235.847656 33.027344 238.464844 C 32.6875 239.0625 32.445312 239.722656 32.066406 240.289062 C 31.570312 241.03125 31.144531 242.0625 29.996094 241.785156 C 28.824219 241.5 29.054688 240.378906 28.902344 239.496094 C 27.003906 228.539062 31.667969 221.765625 39.210938 216.796875 C 42.78125 214.449219 47.203125 213.917969 51.351562 213.511719 C 55.867188 213.070312 58.574219 210.789062 59.761719 206.875 C 61.398438 201.476562 63.691406 196.417969 66.261719 191.445312 C 66.460938 191.058594 66.789062 190.667969 66.449219 189.976562 C 59.71875 193.335938 51.964844 193.648438 45.238281 197.121094 C 43.390625 198.074219 41.632812 199.160156 40.027344 200.484375 C 38.5 201.746094 37.445312 203.285156 37.046875 205.265625 C 36.914062 205.929688 36.714844 206.722656 35.808594 206.664062 C 35.089844 206.617188 34.898438 205.929688 34.667969 205.359375 C 32.359375 199.667969 36.378906 191.597656 40.289062 189.359375 C 45.6875 186.265625 51.539062 185.625 57.527344 185.128906 C 62.242188 184.738281 66.75 183.527344 70.308594 180.101562 C 72.851562 177.65625 75.332031 175.148438 77.832031 172.65625 C 78.210938 172.285156 78.617188 171.898438 78.40625 170.953125 C 76.207031 170.714844 73.898438 170.472656 71.589844 170.21875 C 67.78125 169.796875 63.972656 169.378906 60.167969 168.9375 C 56.355469 168.492188 52.679688 169.179688 49.035156 170.191406 C 48.167969 170.429688 47.242188 171.035156 46.441406 170.234375 C 45.632812 169.425781 45.910156 168.335938 46.160156 167.390625 C 47.203125 163.441406 50.273438 161.476562 53.824219 160.464844 C 60.089844 158.683594 66.320312 158.839844 72.539062 161.253906 C 77.402344 163.140625 82.441406 164.335938 87.824219 163.597656 C 91.199219 163.132812 93.582031 160.847656 96.539062 159.667969 C 97.246094 159.386719 97.027344 158.453125 97.207031 157.800781 C 98.179688 154.21875 99.292969 150.675781 102.53125 148.40625 C 103.765625 147.539062 105.15625 146.929688 106.402344 146 C 110.621094 142.859375 110.402344 138.265625 111.226562 133.148438 C 106.277344 136.117188 101.023438 136.886719 97.222656 140.59375 C 96.472656 141.324219 96.070312 142.199219 95.667969 143.113281 C 95.269531 144.023438 94.925781 144.976562 94.40625 145.816406 C 94 146.472656 93.59375 147.59375 92.539062 147.039062 C 91.691406 146.589844 92.121094 145.667969 92.410156 144.964844 C 94.359375 140.210938 95.304688 135.105469 97.59375 130.457031 C 98.828125 127.945312 100.683594 126.316406 103.1875 125.289062 C 103.964844 124.96875 104.757812 124.589844 105.578125 124.464844 C 111.878906 123.484375 115.507812 119.101562 118.660156 114.171875 C 119.625 112.664062 120.484375 111.082031 121.980469 109.445312 C 120.253906 109.769531 119.640625 110.808594 118.832031 111.566406 C 116.40625 113.84375 113.59375 114.847656 110.230469 114.617188 C 105.9375 114.320312 101.621094 114.15625 97.625 116.269531 C 97.222656 116.484375 96.785156 116.6875 96.316406 116.410156 C 95.878906 116.054688 95.871094 115.589844 96.136719 115.171875 C 97.496094 113.042969 98.722656 110.800781 100.304688 108.84375 C 102.972656 105.535156 106.585938 104.566406 110.792969 104.875 C 114.773438 105.164062 118.585938 106.609375 122.640625 106.363281 C 124.261719 106.261719 125.753906 105.917969 126.847656 104.800781 C 128.914062 102.683594 130.824219 100.40625 133.136719 97.820312 C 126.277344 96.847656 120.867188 92.105469 113.941406 92.894531 C 112.730469 93.03125 111.554688 93.4375 110.351562 93.652344 C 109.75 93.761719 109.085938 93.761719 108.707031 93.128906 C 108.3125 92.476562 108.695312 91.949219 109.109375 91.476562 C 112.726562 87.339844 116.988281 85.222656 122.78125 85.328125 C 128.445312 85.433594 131.832031 89.039062 135.820312 91.875 C 137.199219 92.855469 138.5625 93.738281 140.242188 93.34375 C 145.351562 92.144531 149.902344 89.230469 155.253906 88.597656 C 150.660156 86.171875 146.976562 82.664062 142.425781 80.589844 C 139.28125 79.160156 136.097656 77.648438 132.523438 79.308594 C 132.082031 79.511719 131.601562 79.496094 131.320312 79 C 131.070312 78.550781 131.246094 78.117188 131.449219 77.683594 C 133.097656 74.160156 139.4375 71.925781 143.277344 73.140625 C 147.8125 74.582031 151.011719 77.804688 154.269531 80.890625 C 157.949219 84.378906 162.230469 85.972656 167.164062 85.921875 C 168.722656 85.90625 170.324219 86.507812 172.320312 85.738281 C 167.191406 80.140625 164.855469 72.585938 157.878906 68.820312 C 156.238281 67.933594 156.390625 66.714844 158.183594 65.820312 C 161.335938 64.242188 164.132812 65.367188 166.824219 67.105469 C 170.722656 69.625 173.160156 73.195312 174.796875 77.5 C 176.242188 81.304688 177.976562 84.992188 181.363281 87.609375 C 183.296875 89.101562 185.808594 89.289062 187.777344 90.671875 C 188.453125 91.144531 189.304688 91.414062 189.222656 92.570312 C 187.648438 93.253906 186.363281 92.257812 185.0625 91.878906 C 177.933594 89.796875 175.238281 90.734375 171.125 96.933594 C 170.53125 97.832031 169.792969 98.644531 169.304688 99.59375 C 166.269531 105.515625 160.6875 107.300781 154.808594 108.625 C 154.113281 108.78125 153.339844 108.90625 152.972656 108.144531 C 152.554688 107.265625 153.347656 106.960938 153.941406 106.613281 C 156.691406 105.007812 158.707031 102.734375 159.765625 99.734375 C 161.378906 95.167969 165.488281 93.078125 168.902344 90.292969 C 169.363281 89.917969 170.050781 89.832031 170.386719 89.070312 C 168.578125 87.976562 166.671875 88.425781 164.882812 88.847656 C 161.597656 89.621094 158.316406 90.441406 155.15625 91.675781 C 151.386719 93.148438 148.511719 96.648438 148.953125 100.667969 C 149.664062 107.148438 146.4375 111.28125 141.777344 114.859375 C 140.417969 115.902344 139.476562 115.480469 139.261719 113.503906 C 138.476562 106.3125 140.132812 99.945312 145.816406 95.027344 C 146.332031 94.582031 146.816406 94.105469 147.457031 93.515625 C 146.667969 92.972656 146.003906 93.21875 145.4375 93.476562 C 140.65625 95.640625 136.117188 98.152344 132.652344 102.25 C 131.71875 103.355469 131.488281 104.40625 132.019531 105.824219 C 135.160156 114.269531 132.105469 121.246094 126.6875 127.617188 C 126.34375 128.023438 125.941406 128.414062 125.488281 128.6875 C 124.746094 129.140625 123.960938 130.113281 123.058594 129.316406 C 122.246094 128.601562 123.003906 127.710938 123.390625 127.027344 C 126.332031 121.84375 125.757812 116.242188 125.53125 110.441406 C 124.019531 110.988281 123.183594 112.121094 122.34375 113.097656 C 119.527344 116.382812 117.273438 120.03125 115.886719 124.167969 C 115.550781 125.175781 115.464844 126.101562 116.320312 126.929688 C 120.957031 131.402344 121.648438 136.910156 120.414062 142.878906 C 119.601562 146.816406 119.234375 150.75 119.898438 154.757812 C 120.054688 155.703125 120.226562 156.878906 119.230469 157.507812 C 118.148438 158.191406 117.125 157.449219 116.25 156.890625 C 113.890625 155.382812 113.285156 152.929688 112.960938 150.355469 C 112.550781 147.082031 113.4375 143.949219 114.003906 140.785156 C 114.257812 139.375 114.191406 138.074219 113.050781 136.304688 C 113.050781 137.632812 112.996094 138.421875 113.0625 139.199219 C 113.496094 144.355469 111.742188 148.851562 108.886719 152.996094 C 107.753906 154.636719 106.5625 156.246094 105.28125 157.773438 C 103.238281 160.210938 101.332031 162.683594 101.089844 166.035156 C 101.042969 166.714844 100.929688 167.519531 100.011719 167.546875 C 99.160156 167.574219 98.878906 166.832031 98.652344 166.1875 C 98.25 165.050781 98.148438 163.800781 97.46875 162.773438 C 89.058594 165.820312 85.878906 171.925781 88.277344 180.378906 C 89.410156 184.363281 90.613281 188.304688 91.015625 192.472656 C 91.335938 195.792969 90.757812 198.878906 89.460938 201.867188 C 88.453125 204.1875 87.355469 206.472656 86.238281 208.746094 C 85.875 209.484375 85.414062 210.410156 84.367188 210.085938 C 83.289062 209.753906 83.546875 208.808594 83.675781 207.953125 C 84.359375 203.371094 83.902344 199.015625 81.527344 194.890625 C 79.542969 191.453125 80.125 187.628906 80.1875 183.867188 C 80.238281 180.898438 80.714844 177.992188 81.140625 174.613281 C 77.992188 175.949219 76.40625 178.324219 75.175781 180.742188 C 72.742188 185.519531 69.789062 190.195312 68.789062 195.476562 C 68.058594 199.339844 68.644531 203.460938 71.726562 206.5625 C 73.617188 208.464844 75.648438 210.226562 77.632812 212.03125 C 79.433594 213.664062 80.375 215.777344 80.636719 218.097656 C 80.984375 221.140625 81.136719 224.214844 81.210938 227.28125 C 81.265625 229.578125 80.261719 230.214844 78.410156 228.964844 C 72.390625 224.890625 67.363281 220.109375 65.734375 212.5 C 64.972656 208.925781 64.777344 205.414062 65.027344 201.496094 C 63.515625 202.417969 63.046875 203.636719 62.664062 204.835938 C 60.910156 210.332031 59.808594 215.964844 59.617188 221.742188 C 59.488281 225.558594 60.683594 228.523438 64.667969 230.054688 C 70.058594 232.132812 74.488281 235.671875 76.933594 240.949219 C 79.285156 246.023438 80.988281 251.402344 80.75 257.15625 C 80.714844 258.015625 80.542969 258.980469 79.578125 259.199219 C 78.488281 259.449219 78.171875 258.402344 77.867188 257.671875 C 76.65625 254.757812 75.257812 251.992188 73.285156 249.484375 C 70.25 245.625 66.066406 243.160156 62.292969 239.992188 C 62.039062 244.105469 62.355469 248.058594 63.550781 251.933594 C 64.566406 255.242188 65.804688 258.433594 67.546875 261.449219 C 68.417969 262.960938 69.460938 263.691406 71.191406 263.722656 C 73.941406 263.769531 76.660156 263.820312 79.351562 264.734375 C 84.417969 266.457031 87.945312 270.089844 91.082031 274.054688 C 94.226562 278.023438 97.859375 281.339844 101.980469 284.195312 C 102.042969 284.238281 102.117188 284.265625 102.179688 284.3125 C 103.398438 285.234375 104.992188 286.097656 104.769531 287.824219 C 104.566406 289.421875 102.777344 289.5 101.371094 290.097656 Z M 101.371094 290.097656 "/>
<path style=" stroke:none;fill-rule:nonzero;fill:rgb(0%,0%,0%);fill-opacity:1;" d="M 182.695312 389.464844 C 188.820312 390.828125 193.109375 394.855469 197.570312 398.59375 C 198.167969 399.09375 198.734375 399.761719 198.105469 400.574219 C 197.488281 401.371094 196.777344 400.925781 196.046875 400.59375 C 191.425781 398.480469 186.664062 397.582031 181.570312 398.625 C 179.324219 399.085938 176.929688 399.175781 174.722656 398.417969 C 170.234375 396.875 165.507812 396.011719 161.273438 393.734375 C 160.953125 393.5625 160.582031 393.472656 159.898438 393.226562 C 160.386719 396.140625 162.054688 398.128906 163.898438 399.640625 C 168.632812 403.527344 173.089844 408.03125 178.757812 410.386719 C 182.363281 411.886719 186.660156 412.4375 190.613281 410.546875 C 193.171875 409.324219 195.820312 408.308594 198.316406 406.921875 C 201.375 405.226562 204.796875 405.597656 208.015625 406.242188 C 210.476562 406.734375 212.914062 407.457031 215.394531 407.945312 C 216.152344 408.097656 216.960938 408.332031 217.25 409.140625 C 217.578125 410.066406 216.761719 410.535156 216.207031 411.007812 C 213.648438 413.167969 210.609375 414.460938 207.546875 415.707031 C 199.742188 418.878906 191.988281 418.386719 184.257812 415.4375 C 183.921875 415.308594 183.554688 415.253906 182.886719 415.085938 C 184.238281 417.726562 186.5625 418.738281 188.667969 419.792969 C 194.082031 422.515625 199.582031 425.105469 205.648438 426.101562 C 208.089844 426.5 210.269531 426.28125 212.175781 424.277344 C 216.652344 419.582031 222.183594 416.398438 228.582031 415.667969 C 234.5625 414.984375 240.679688 415.078125 246.566406 416.9375 C 247.351562 417.1875 248.324219 417.492188 248.113281 418.601562 C 247.929688 419.554688 247.007812 419.539062 246.242188 419.570312 C 237.503906 419.902344 229.949219 423.394531 222.796875 428.496094 C 225.785156 429.761719 228.914062 430.199219 232.046875 430.421875 C 237.019531 430.777344 242.003906 430.878906 246.941406 429.894531 C 248.574219 429.566406 250.222656 429.132812 250.660156 427.277344 C 252.574219 419.105469 258.933594 415.570312 265.933594 413.050781 C 271.894531 410.90625 277.628906 408.511719 282.855469 404.871094 C 285.691406 402.894531 286.980469 403.667969 287.351562 407.019531 C 287.820312 411.226562 285.226562 413.644531 282.101562 415.460938 C 278.394531 417.617188 274.515625 419.480469 270.285156 420.515625 C 268.15625 421.035156 265.980469 421.675781 264.957031 424.25 C 266.1875 424.34375 267.070312 423.902344 267.816406 423.273438 C 271.917969 419.816406 276.988281 418.929688 281.996094 418.507812 C 288.171875 417.984375 294.378906 418.652344 300.535156 419.542969 C 304.113281 420.058594 307.558594 419.261719 310.90625 418.015625 C 311.660156 417.734375 312.113281 417.246094 311.703125 416.429688 C 309.472656 412.003906 307.796875 407.257812 303.773438 403.910156 C 302.230469 402.628906 300.535156 401.964844 298.734375 401.292969 C 296.796875 400.570312 294.546875 400.308594 293.292969 398.363281 C 293.742188 397.363281 294.472656 397.5 295.132812 397.648438 C 296.773438 398.019531 298.417969 398.410156 300.039062 398.875 C 305.046875 400.316406 309.269531 398.683594 312.136719 394.371094 C 314.511719 390.808594 316.207031 386.792969 319.328125 383.714844 C 322.617188 380.46875 327.007812 379.730469 331.128906 378.378906 C 331.804688 378.15625 332.777344 378.1875 333.050781 379.152344 C 333.289062 379.996094 332.496094 380.332031 331.933594 380.695312 C 328.785156 382.738281 326.652344 385.539062 325.589844 389.140625 C 324.785156 391.863281 322.738281 393.628906 320.769531 395.464844 C 318.726562 397.371094 316.625 399.214844 314.34375 400.972656 C 316.167969 401.507812 317.933594 401.667969 319.601562 401.148438 C 323.839844 399.824219 328.261719 398.902344 332.132812 396.667969 C 335.515625 394.710938 337.84375 391.839844 337.769531 387.605469 C 337.757812 386.988281 337.859375 386.359375 337.757812 385.761719 C 336.605469 378.984375 340.390625 374.585938 345.011719 370.570312 C 346.203125 369.535156 347.101562 369.605469 347.464844 371.261719 C 348.683594 376.878906 348.515625 382.335938 345.601562 387.503906 C 343.972656 390.394531 342.101562 393.054688 339.0625 395.074219 C 340.800781 395.453125 341.910156 394.722656 343.023438 394.132812 C 347.238281 391.886719 351.226562 389.304688 354.546875 385.832031 C 356.300781 384 356.972656 382.105469 355.914062 379.394531 C 351.949219 369.246094 356.078125 361.183594 362.652344 354.378906 C 363.230469 353.785156 363.984375 353.089844 364.863281 353.683594 C 365.664062 354.226562 365.277344 355.089844 364.941406 355.773438 C 361.757812 362.246094 362.164062 366.96875 363.441406 374.621094 C 368.519531 370.234375 371.515625 364.777344 373.148438 358.507812 C 373.457031 357.320312 372.699219 356.398438 371.898438 355.6875 C 366.707031 351.050781 366.175781 344.996094 367.039062 338.742188 C 367.667969 334.203125 367.722656 329.753906 367.066406 325.257812 C 366.921875 324.269531 366.644531 323.148438 367.570312 322.46875 C 368.519531 321.769531 369.488281 322.519531 370.363281 322.910156 C 373.617188 324.367188 374.480469 327.359375 374.765625 330.46875 C 375.078125 333.90625 374.976562 337.382812 374.1875 340.773438 C 373.804688 342.40625 374.121094 343.773438 375.171875 345.117188 C 375.761719 344.578125 375.585938 343.917969 375.484375 343.386719 C 374.160156 336.550781 376.648438 330.753906 380.367188 325.289062 C 381.746094 323.257812 383.136719 321.230469 384.609375 319.265625 C 386.195312 317.152344 386.800781 314.738281 387.054688 312.1875 C 387.136719 311.386719 387.261719 310.570312 388.1875 310.402344 C 389.148438 310.230469 389.519531 311.007812 389.800781 311.738281 C 391.851562 317.132812 392.867188 322.46875 389.601562 327.863281 C 388.40625 329.835938 387.042969 331.542969 385.039062 332.589844 C 379.042969 335.710938 378.335938 341.445312 377.65625 347.210938 C 377.601562 347.667969 377.816406 348.113281 378.519531 348.605469 C 382.691406 345.367188 388.402344 344.59375 392.285156 340.417969 C 393.792969 338.796875 394.175781 336.773438 395.222656 335.019531 C 395.808594 334.035156 396.109375 332.125 397.503906 332.644531 C 399.003906 333.203125 397.960938 334.84375 397.597656 335.894531 C 395.949219 340.683594 395.082031 345.691406 393.328125 350.460938 C 391.933594 354.25 389.304688 356.5 385.695312 357.871094 C 385.40625 357.980469 385.121094 358.117188 384.824219 358.171875 C 378.171875 359.363281 374.3125 364.011719 371.066406 369.367188 C 369.726562 371.582031 368.835938 374.074219 366.851562 375.921875 C 368.097656 375.769531 369 375.1875 369.679688 374.210938 C 372.195312 370.59375 375.980469 369.359375 380.066406 369.1875 C 384.738281 368.992188 389.457031 369.382812 393.707031 366.824219 C 394.148438 366.554688 394.707031 366.339844 395.195312 366.8125 C 395.582031 367.1875 395.59375 367.679688 395.355469 368.085938 C 393.199219 371.773438 391.667969 375.933594 387.839844 378.375 C 386.269531 379.378906 384.519531 379.835938 382.628906 380.007812 C 377.546875 380.464844 372.558594 379.160156 367.484375 379.339844 C 364.625 379.441406 362.3125 380.058594 360.605469 382.640625 C 359.152344 384.839844 357.265625 386.75 355.5625 388.800781 C 356.6875 389.890625 357.898438 389.757812 359 389.925781 C 362.378906 390.4375 365.386719 392.082031 368.621094 393.050781 C 372.503906 394.207031 376.179688 393.742188 379.921875 392.757812 C 380.875 392.503906 381.96875 391.917969 382.699219 392.890625 C 383.546875 394.011719 382.292969 394.636719 381.753906 395.398438 C 377.449219 401.472656 371.339844 403.164062 364.332031 402.359375 C 360.175781 401.882812 357.082031 399.050781 353.925781 396.703125 C 351.238281 394.703125 348.648438 393.875 345.617188 395.167969 C 340.996094 397.136719 336.46875 399.328125 330.890625 400.632812 C 337.480469 403.414062 342.335938 407.914062 348.640625 409.742188 C 351.371094 410.535156 353.992188 411.066406 356.6875 409.730469 C 357.195312 409.476562 357.863281 409.09375 358.371094 409.738281 C 358.839844 410.328125 358.445312 410.894531 358.160156 411.441406 C 355.839844 415.871094 349.644531 418.183594 344.878906 416.753906 C 340.347656 415.398438 337.03125 412.351562 333.574219 409.453125 C 329.898438 406.367188 325.96875 404.003906 320.914062 404.316406 C 318.277344 404.476562 315.632812 404.3125 313.132812 403.957031 C 312.722656 404.835938 313.179688 405.132812 313.476562 405.433594 C 316.675781 408.675781 319.089844 412.539062 321.820312 416.144531 C 323.871094 418.851562 326.460938 420.804688 329.3125 422.496094 C 331.402344 423.726562 331.472656 424.644531 329.398438 425.886719 C 326.214844 427.792969 323.128906 426.921875 320.289062 425.148438 C 318.019531 423.734375 315.960938 421.988281 313.621094 420.25 C 312.199219 421.457031 310.597656 422.628906 309.226562 424.019531 C 305.171875 428.140625 300.007812 428.894531 294.617188 429.015625 C 291.175781 429.089844 288.050781 428.160156 284.945312 426.582031 C 279.609375 423.871094 274.046875 424.175781 268.503906 426.253906 C 266.5 427.007812 264.382812 427.453125 262.730469 428.898438 C 262.777344 429.109375 262.769531 429.347656 262.84375 429.378906 C 267.222656 431.117188 271.03125 433.867188 275.042969 436.25 C 279.820312 439.082031 284.933594 439.714844 290.339844 438.589844 C 291.800781 438.289062 293.375 438.046875 294.523438 439.484375 C 294.214844 440.789062 293.144531 440.996094 292.203125 441.136719 C 284.242188 442.332031 276.480469 444.722656 268.40625 445.226562 C 263.667969 445.519531 259.890625 443.105469 256.167969 440.625 C 255.53125 440.199219 254.878906 439.769531 254.332031 439.234375 C 249.40625 434.421875 243.074219 433.878906 236.710938 433.339844 C 232.113281 432.949219 227.382812 434.140625 222.878906 432.152344 C 224.292969 433.5625 226 434.308594 227.871094 434.519531 C 232.90625 435.085938 236.726562 437.535156 239.773438 441.535156 C 242.417969 445 244.664062 448.796875 248.015625 451.707031 C 249.015625 452.574219 250.113281 453.230469 251.246094 453.878906 C 252.007812 454.308594 253.027344 454.53125 253.15625 455.703125 C 253.015625 455.867188 252.878906 456.175781 252.726562 456.183594 C 246.929688 456.457031 241.105469 457.210938 235.503906 454.796875 C 232.792969 453.625 230.691406 451.757812 229.070312 449.390625 C 226.816406 446.09375 225.085938 442.507812 223.324219 438.914062 C 220.824219 433.824219 217.507812 429.621094 210.84375 429.683594 C 207.699219 429.710938 204.542969 428.6875 201.246094 428.117188 C 201.203125 428.648438 201.0625 428.996094 201.175781 429.203125 C 203.875 434.152344 204.164062 439.800781 205.785156 445.066406 C 206.953125 448.863281 209.527344 451.488281 212.292969 454.066406 C 213.355469 455.054688 215.398438 455.90625 214.550781 457.59375 C 213.773438 459.140625 211.914062 458.03125 210.550781 457.816406 C 202.921875 456.609375 196.902344 453.027344 193.085938 446.078125 C 191.832031 443.800781 190.933594 441.507812 191.113281 438.875 C 191.332031 435.585938 191.289062 432.28125 191.980469 429.027344 C 192.410156 427 191.734375 425.285156 190.261719 423.816406 C 188.667969 422.226562 186.875 420.949219 184.9375 419.820312 C 181.496094 417.8125 177.992188 415.898438 175.28125 412.839844 C 174.402344 411.847656 173.210938 411.078125 171.625 410.636719 C 172.597656 417.382812 171.328125 423.988281 172.402344 430.527344 C 173.132812 434.960938 174.351562 439.101562 178.820312 441.316406 C 179.226562 441.519531 179.632812 441.777344 179.644531 442.382812 C 179.316406 443.359375 178.433594 443.082031 177.726562 443.097656 C 167.421875 443.296875 160.402344 435.261719 162.371094 424.238281 C 162.921875 421.152344 163.898438 418.128906 164.265625 415.03125 C 164.734375 411.105469 164.46875 407.234375 162.082031 403.761719 C 159.835938 400.484375 157.777344 397.078125 155.59375 393.664062 C 155.304688 393.871094 155.03125 393.960938 154.988281 394.113281 C 153.34375 399.613281 150.359375 404.480469 147.710938 409.492188 C 145.804688 413.101562 145.4375 416.90625 145.5625 420.835938 C 145.621094 422.753906 144.699219 423.488281 142.820312 422.886719 C 139.210938 421.734375 136.421875 417.234375 136.578125 413.304688 C 136.828125 406.972656 139.101562 401.617188 143.347656 396.890625 C 146.417969 393.476562 149.1875 389.765625 150.28125 385.101562 C 150.679688 383.402344 150.816406 381.789062 150.199219 380.132812 C 149.417969 378.027344 149.253906 375.792969 148.984375 373.589844 C 148.890625 372.835938 148.910156 371.90625 149.894531 371.742188 C 150.707031 371.609375 151.089844 372.355469 151.3125 373.011719 C 151.96875 374.972656 152.660156 376.929688 153.175781 378.933594 C 154.714844 384.90625 159.34375 386.972656 164.683594 388.066406 C 169.140625 388.984375 173.730469 388.078125 178.210938 388.902344 C 179.632812 389.160156 181.089844 389.242188 182.695312 389.464844 Z M 182.695312 389.464844 "/>
<path style=" stroke:none;fill-rule:nonzero;fill:rgb(0%,0%,0%);fill-opacity:1;" d="M 264.835938 220.515625 C 264.265625 217.578125 263.328125 214.972656 261.621094 212.742188 C 257.726562 207.65625 252.292969 207.417969 246.59375 208.128906 C 245.378906 208.28125 244.171875 208.496094 242.953125 208.601562 C 242.25 208.664062 241.515625 208.546875 241.261719 207.726562 C 241.046875 207.023438 241.539062 206.574219 241.996094 206.160156 C 243.542969 204.75 245.394531 204.125 247.464844 204.0625 C 260.230469 203.691406 268.527344 210.265625 271.582031 223.183594 C 273.605469 231.742188 272.640625 240.179688 269.871094 248.335938 C 262.625 269.683594 247.679688 283.167969 226.386719 289.863281 C 222.515625 291.078125 218.410156 290.921875 214.5 290.265625 C 208.082031 289.1875 204.359375 284.914062 202.640625 278.789062 C 200.902344 272.613281 201.949219 266.460938 202.988281 259.800781 C 200.300781 263.546875 197.933594 266.945312 195.46875 270.269531 C 189.882812 277.804688 184.015625 285.101562 176.714844 291.09375 C 173.675781 293.589844 170.433594 295.835938 166.582031 296.851562 C 160.210938 298.53125 155.847656 295.574219 154.90625 289.03125 C 154.101562 283.421875 155.386719 278.007812 156.855469 272.679688 C 160.371094 259.921875 165.496094 247.746094 170.539062 235.546875 C 175.203125 224.261719 179.671875 212.90625 181.164062 200.660156 C 181.503906 197.847656 181.53125 195.019531 180.855469 192.222656 C 179.539062 186.769531 175.226562 185 170.480469 184.09375 C 162.496094 182.566406 154.890625 184.253906 147.660156 187.632812 C 130.664062 195.574219 117.605469 207.644531 109.449219 224.695312 C 106.40625 231.054688 104.546875 237.878906 104.476562 244.890625 C 104.390625 253.511719 107.367188 261.371094 116.3125 264.152344 C 122.472656 266.070312 128.710938 265.488281 134.066406 261.996094 C 143.699219 255.710938 149.265625 246.789062 149.335938 234.96875 C 149.371094 229.117188 145.550781 226.191406 139.429688 226.636719 C 138.285156 226.71875 137.136719 226.789062 135.992188 226.789062 C 135.4375 226.785156 134.929688 226.523438 134.777344 225.910156 C 134.613281 225.253906 135.050781 224.875 135.542969 224.648438 C 140.476562 222.378906 145.589844 221.503906 150.660156 223.847656 C 155.148438 225.917969 156.570312 230.03125 156.667969 234.695312 C 156.804688 241.117188 154.347656 246.71875 150.777344 251.824219 C 145.578125 259.25 138.726562 264.746094 130.097656 267.640625 C 115.777344 272.445312 101.195312 264.777344 97.148438 249.277344 C 94.898438 240.648438 96.339844 232.328125 99.644531 224.3125 C 106.570312 207.523438 118.949219 195.816406 134.714844 187.351562 C 143.992188 182.371094 153.808594 179.21875 164.390625 179.335938 C 171.660156 179.417969 178.554688 181.121094 183.886719 186.675781 C 187.238281 190.171875 188.691406 194.449219 189.097656 199.15625 C 190.113281 210.871094 186.277344 221.550781 181.824219 232.03125 C 175.191406 247.644531 168.714844 263.308594 164.242188 279.714844 C 163.558594 282.226562 163.050781 284.792969 162.546875 287.351562 C 162.382812 288.164062 162.382812 289.042969 162.484375 289.871094 C 162.84375 292.742188 164.613281 293.695312 167.234375 292.460938 C 171.652344 290.375 175 286.949219 178.085938 283.332031 C 186.039062 274.007812 192.320312 263.53125 198.613281 253.0625 C 203.394531 245.105469 207.828125 236.925781 213.46875 229.507812 C 214.265625 228.460938 215.179688 227.554688 216.285156 226.820312 C 217.632812 225.925781 219.019531 225.308594 220.585938 226.121094 C 222.105469 226.910156 222.222656 228.414062 222.28125 229.902344 C 222.417969 233.472656 221.042969 236.683594 219.757812 239.867188 C 216.800781 247.195312 213.363281 254.332031 210.839844 261.832031 C 209.214844 266.652344 208.148438 271.570312 208.386719 276.738281 C 208.734375 284.261719 213.378906 287.9375 220.699219 286.328125 C 226.523438 285.046875 231.574219 282.171875 236.3125 278.703125 C 245.59375 271.90625 253.675781 263.964844 258.695312 253.457031 C 263.003906 244.441406 265.605469 234.9375 265.363281 224.808594 C 265.332031 223.410156 265.085938 222.066406 264.835938 220.515625 Z M 264.835938 220.515625 "/>
<path style=" stroke:none;fill-rule:nonzero;fill:rgb(0%,0%,0%);fill-opacity:1;" d="M 315.710938 281.351562 C 311.683594 278.941406 310.449219 275.132812 311.816406 269.523438 C 313.035156 264.539062 315.523438 260.128906 318.167969 255.792969 C 318.886719 254.617188 319.589844 253.425781 320.25 252.210938 C 320.617188 251.53125 320.929688 250.753906 320.316406 250.066406 C 319.664062 249.335938 318.882812 249.722656 318.183594 250.015625 C 314.921875 251.394531 312.4375 253.832031 309.996094 256.261719 C 303.789062 262.445312 298.917969 269.636719 295.1875 277.515625 C 293.578125 280.917969 291.191406 282.128906 287.78125 282.0625 C 286.746094 282.039062 285.648438 282.480469 284.695312 281.878906 C 284.15625 280.992188 284.960938 280.371094 285.007812 279.359375 C 284.203125 279.757812 283.496094 280.097656 282.800781 280.457031 C 276.234375 283.855469 269.953125 280.257812 269.570312 272.878906 C 269.351562 268.578125 271.171875 264.800781 272.648438 260.945312 C 274.675781 255.640625 276.773438 250.367188 278.863281 245.085938 C 279.433594 243.644531 279.496094 242.234375 278.738281 240.863281 C 277.800781 239.167969 278.515625 238.652344 280.179688 238.679688 C 282.101562 238.707031 284.023438 238.652344 285.941406 238.6875 C 288.902344 238.746094 289.757812 240.082031 288.617188 242.894531 C 287.433594 245.8125 286.207031 248.710938 284.957031 251.601562 C 282.371094 257.589844 279.753906 263.566406 277.15625 269.550781 C 276.503906 271.046875 276.164062 272.601562 276.21875 274.25 C 276.324219 277.410156 278.164062 278.730469 281.152344 277.636719 C 282.828125 277.027344 284.207031 275.980469 285.375 274.558594 C 290.941406 267.78125 294.390625 259.769531 298.535156 252.164062 C 300.296875 248.933594 301.972656 245.660156 303.90625 242.519531 C 305.960938 239.175781 308.871094 238.09375 312.550781 238.898438 C 313.546875 239.117188 314.75 238.742188 315.746094 239.9375 C 311.0625 245.109375 307.683594 251.160156 304.738281 257.550781 C 306.785156 255.585938 308.765625 253.542969 310.890625 251.664062 C 316.398438 246.800781 322.476562 242.824219 329.398438 240.234375 C 329.757812 240.101562 330.125 239.988281 330.496094 239.890625 C 331.761719 239.566406 333.304688 239.003906 334.207031 240.015625 C 335.242188 241.179688 333.734375 242.238281 333.207031 243.234375 C 328.605469 251.921875 323.914062 260.554688 320.507812 269.808594 C 319.917969 271.40625 319.488281 273.035156 319.476562 274.746094 C 319.46875 275.898438 319.410156 277.144531 320.511719 277.882812 C 321.75 278.714844 322.925781 277.960938 323.949219 277.359375 C 325.886719 276.21875 327.441406 274.554688 328.765625 272.785156 C 332.320312 268.046875 335.296875 262.972656 337.667969 257.507812 C 341.664062 248.292969 347.421875 240.628906 357.234375 236.902344 C 358.878906 236.277344 360.605469 235.78125 362.402344 236.078125 C 368.382812 237.070312 370.6875 241.730469 367.835938 247.457031 C 364.792969 253.5625 359.878906 257.695312 353.515625 260.097656 C 351.21875 260.964844 348.902344 261.824219 346.457031 262.167969 C 344.859375 262.390625 344.128906 263.238281 343.734375 264.789062 C 342.828125 268.355469 342.488281 271.914062 343.691406 275.429688 C 344.523438 277.871094 346.789062 278.925781 349.378906 278.628906 C 354.730469 278.015625 358.1875 274.605469 361.3125 270.703125 C 363.726562 267.695312 365.589844 264.335938 367.222656 260.847656 C 367.84375 259.527344 368.429688 258.191406 369.113281 256.902344 C 369.578125 256.015625 370.347656 255.394531 371.367188 255.980469 C 372.277344 256.511719 372.089844 257.402344 371.699219 258.226562 C 368.816406 264.328125 366.265625 270.640625 361.550781 275.65625 C 357.230469 280.253906 352.019531 282.882812 345.535156 282.042969 C 340.59375 281.40625 337.265625 278.636719 335.601562 273.925781 C 335.269531 272.992188 335.054688 272.019531 334.691406 270.710938 C 332.691406 272.316406 331.625 274.445312 330.144531 276.199219 C 326.398438 280.636719 320.886719 283.753906 315.710938 281.351562 M 363.007812 247.96875 C 363.449219 246.910156 364.019531 245.882812 364.300781 244.78125 C 364.683594 243.28125 365.667969 241.457031 363.90625 240.363281 C 362.292969 239.363281 360.882812 240.75 359.519531 241.558594 C 359.386719 241.636719 359.289062 241.765625 359.167969 241.859375 C 355.261719 244.839844 352.445312 248.769531 349.710938 252.761719 C 348.449219 254.609375 347.191406 256.480469 346.347656 259.027344 C 353.765625 257.828125 359.066406 254.226562 363.007812 247.96875 Z M 363.007812 247.96875 "/>
<path style=" stroke:none;fill-rule:nonzero;fill:rgb(0%,0%,0%);fill-opacity:1;" d="M 174.695312 306.421875 C 202.324219 306.414062 229.71875 306.398438 257.117188 306.429688 C 258.140625 306.429688 259.992188 305.835938 259.980469 307.335938 C 259.96875 308.976562 258.074219 308.378906 256.980469 308.378906 C 225.671875 308.402344 194.359375 308.390625 163.050781 308.363281 C 161.828125 308.363281 160.445312 308.71875 159.488281 307.515625 C 159.898438 306.109375 160.964844 306.449219 161.800781 306.445312 C 166.023438 306.410156 170.242188 306.425781 174.695312 306.421875 Z M 174.695312 306.421875 "/>
<path style=" stroke:none;fill-rule:nonzero;fill:rgb(0%,0%,0%);fill-opacity:1;" d="M 290.5625 223.246094 C 293.992188 224.652344 295.03125 226.785156 294.019531 230.042969 C 293.144531 232.855469 289.714844 234.953125 287.015625 234.332031 C 283.4375 233.511719 281.972656 229.453125 284.195312 226.34375 C 285.691406 224.253906 287.644531 222.902344 290.5625 223.246094 Z M 290.5625 223.246094 "/>
<path style=" stroke:none;fill-rule:nonzero;fill:rgb(0%,0%,0%);fill-opacity:1;" d="M 324.484375 314.085938 C 324.476562 311.664062 324.484375 309.441406 324.480469 307.222656 C 324.476562 303.488281 324.472656 303.511719 328.21875 303.246094 C 330.277344 303.097656 331.558594 303.933594 332.167969 305.929688 C 333.085938 308.949219 331.378906 311.15625 327.742188 311.550781 C 326.613281 312.640625 328.382812 315.015625 326.035156 315.542969 C 325.128906 315.746094 324.601562 315.207031 324.484375 314.085938 M 327.578125 309.039062 C 328.609375 310.101562 329.507812 309.625 330.28125 308.734375 C 331.015625 307.894531 330.988281 306.902344 330.449219 305.976562 C 330.050781 305.296875 329.425781 304.722656 328.582031 304.953125 C 327.234375 305.324219 327.339844 306.503906 327.347656 307.574219 C 327.351562 307.953125 327.410156 308.332031 327.578125 309.039062 Z M 327.578125 309.039062 "/>
<path style=" stroke:none;fill-rule:nonzero;fill:rgb(0%,0%,0%);fill-opacity:1;" d="M 297.867188 310.875 C 296.871094 310.269531 296.84375 309.417969 296.84375 308.558594 C 296.835938 304.183594 296.828125 299.804688 296.84375 295.425781 C 296.84375 294.898438 296.929688 294.355469 297.066406 293.839844 C 297.25 293.160156 297.785156 292.84375 298.464844 292.894531 C 299.222656 292.945312 299.535156 293.488281 299.492188 294.171875 C 299.179688 299.390625 299.316406 304.609375 299.390625 309.828125 C 299.402344 310.710938 298.878906 311.054688 297.867188 310.875 Z M 297.867188 310.875 "/>
<path style=" stroke:none;fill-rule:nonzero;fill:rgb(0%,0%,0%);fill-opacity:1;" d="M 275.953125 307.980469 C 275.925781 307.242188 275.941406 306.703125 275.863281 306.179688 C 275.785156 305.6875 275.457031 305.339844 274.9375 305.304688 C 274.300781 305.265625 273.933594 305.644531 273.851562 306.246094 C 273.71875 307.230469 273.558594 308.214844 273.539062 309.203125 C 273.519531 310.136719 273.410156 310.957031 272.277344 310.988281 C 270.964844 311.019531 270.898438 310.039062 270.902344 309.074219 C 270.902344 308.539062 270.941406 308.003906 270.9375 307.46875 C 270.921875 303.503906 272.066406 302.578125 276.042969 303.28125 C 277.363281 303.515625 278.113281 304.324219 278.269531 305.5625 C 278.433594 306.839844 278.386719 308.148438 278.402344 309.445312 C 278.414062 310.324219 278.015625 310.960938 277.082031 310.984375 C 276.167969 311.003906 276 310.300781 275.972656 309.558594 C 275.953125 309.101562 275.960938 308.640625 275.953125 307.980469 Z M 275.953125 307.980469 "/>
<path style=" stroke:none;fill-rule:nonzero;fill:rgb(0%,0%,0%);fill-opacity:1;" d="M 281 305.175781 C 282.601562 302.640625 284.894531 303.238281 287.074219 303.449219 C 287.28125 303.46875 287.503906 303.621094 287.667969 303.765625 C 288.371094 304.398438 288.417969 309.914062 287.742188 310.621094 C 285.988281 312.449219 281.605469 311.402344 280.777344 308.929688 C 280.382812 307.742188 280.402344 306.523438 281 305.175781 M 285.632812 308.351562 C 285.621094 307.597656 285.6875 306.832031 285.585938 306.089844 C 285.460938 305.191406 284.796875 304.78125 283.941406 304.957031 C 282.960938 305.164062 282.398438 305.886719 282.246094 306.867188 C 282.082031 307.910156 282.296875 308.90625 283.308594 309.394531 C 284.167969 309.8125 285.09375 309.839844 285.632812 308.351562 Z M 285.632812 308.351562 "/>
<path style=" stroke:none;fill-rule:nonzero;fill:rgb(0%,0%,0%);fill-opacity:1;" d="M 338.339844 311.1875 C 335.5625 311.390625 333.921875 310.171875 333.820312 308.011719 C 333.695312 305.296875 334.972656 303.441406 337.097656 303.257812 C 340.246094 302.992188 341.359375 303.523438 341.5625 305.398438 C 342.058594 309.984375 341.6875 310.679688 338.339844 311.1875 M 336.359375 309.292969 C 337.328125 309.734375 338.4375 310.015625 338.902344 308.808594 C 339.332031 307.6875 339.386719 306.371094 338.425781 305.355469 C 337.867188 304.765625 337.183594 304.816406 336.5625 305.308594 C 335.492188 306.160156 334.992188 307.175781 335.714844 308.503906 C 335.820312 308.707031 335.972656 308.882812 336.359375 309.292969 Z M 336.359375 309.292969 "/>
<path style=" stroke:none;fill-rule:nonzero;fill:rgb(0%,0%,0%);fill-opacity:1;" d="M 367.789062 306.4375 C 369.308594 306.621094 370.785156 305.90625 371.898438 307.152344 C 370.535156 308.898438 353.917969 308.976562 352.011719 306.949219 C 354.679688 305.960938 357.257812 306.570312 359.742188 306.472656 C 362.34375 306.367188 364.957031 306.445312 367.789062 306.4375 Z M 367.789062 306.4375 "/>
<path style=" stroke:none;fill-rule:nonzero;fill:rgb(0%,0%,0%);fill-opacity:1;" d="M 316.847656 309.1875 C 317.664062 309.007812 318.214844 309.84375 319.082031 309.316406 C 318.484375 307.472656 314.09375 306.402344 317.566406 303.699219 C 318.660156 302.847656 320.261719 302.714844 321.167969 304.25 C 320.921875 305.449219 319.929688 304.753906 319.246094 305.40625 C 319.949219 306.019531 320.75 306.515625 321.273438 307.222656 C 322.261719 308.558594 321.96875 309.828125 320.628906 310.78125 C 319.277344 311.742188 317.289062 311.464844 316.527344 310.253906 C 316.300781 309.898438 316.375 309.523438 316.847656 309.1875 Z M 316.847656 309.1875 "/>
<path style=" stroke:none;fill-rule:nonzero;fill:rgb(0%,0%,0%);fill-opacity:1;" d="M 307.535156 307.492188 C 308.335938 309.539062 307.378906 310.648438 305.738281 311.175781 C 304.242188 311.65625 302.921875 311.304688 302.292969 309.644531 C 303.246094 308.539062 304.257812 310.191406 305.148438 309.339844 C 305.21875 308.375 304.332031 308.195312 303.753906 307.789062 C 302.738281 307.078125 301.945312 306.28125 302.519531 304.933594 C 303.066406 303.652344 304.101562 303.105469 305.480469 303.261719 C 306.15625 303.339844 307.058594 303.367188 307.074219 304.234375 C 307.097656 305.414062 306.039062 305.003906 305.117188 305.007812 C 305.824219 306.074219 307.023438 306.34375 307.535156 307.492188 Z M 307.535156 307.492188 "/>
<path style=" stroke:none;fill-rule:nonzero;fill:rgb(0%,0%,0%);fill-opacity:1;" d="M 293.097656 310.921875 C 292.332031 311.078125 291.726562 310.902344 291.703125 310.277344 C 291.632812 308.289062 291.664062 306.296875 291.707031 304.308594 C 291.71875 303.808594 292.105469 303.488281 292.621094 303.425781 C 293.136719 303.363281 293.640625 303.625 293.714844 304.070312 C 294.09375 306.359375 294.808594 308.6875 293.097656 310.921875 Z M 293.097656 310.921875 "/>
<path style=" stroke:none;fill-rule:nonzero;fill:rgb(0%,0%,0%);fill-opacity:1;" d="M 292.324219 302.320312 C 291.421875 301.59375 291.246094 300.835938 292.144531 300.207031 C 292.707031 299.8125 293.410156 300.003906 293.671875 300.65625 C 294.09375 301.714844 293.433594 302.175781 292.324219 302.320312 Z M 292.324219 302.320312 "/>
</g>
</svg>
